<?xml version="1.0" standalone="no"?>
<!DOCTYPE svg PUBLIC "-//W3C//DTD SVG 20010904//EN"
 "http://www.w3.org/TR/2001/REC-SVG-20010904/DTD/svg10.dtd">
<svg version="1.0" xmlns="http://www.w3.org/2000/svg"
 width="224.000000pt" height="224.000000pt" viewBox="0 0 224.000000 224.000000"
 preserveAspectRatio="xMidYMid meet">

<g transform="translate(0.000000,224.000000) scale(0.100000,-0.100000)"
fill="#000000" stroke="none">
<path d="M1700 2080 c-17 -5 3 -8 60 -8 57 0 77 3 60 8 -14 4 -41 8 -60 8 -19
0 -46 -4 -60 -8z"/>
<path d="M608 1979 c-13 -4 15 -7 62 -7 87 0 91 5 8 10 -26 2 -57 0 -70 -3z"/>
<path d="M480 1956 c-61 -21 -106 -45 -87 -46 11 0 33 7 50 15 18 8 57 21 87
29 48 12 51 14 20 14 -19 0 -51 -6 -70 -12z"/>
<path d="M1557 1943 c-14 -14 -6 -53 16 -73 12 -12 42 -31 67 -44 41 -20 54
-21 140 -16 52 4 76 7 53 8 -110 5 -192 23 -222 50 -17 14 -31 33 -31 42 0 21
-15 42 -23 33z"/>
<path d="M278 1832 c-55 -55 -98 -108 -98 -121 0 -21 20 -11 33 16 6 15 34 49
61 74 26 26 47 52 45 58 -2 6 -21 -6 -41 -27z"/>
<path d="M446 1794 c-57 -20 -68 -32 -55 -56 11 -21 24 -21 111 3 33 8 38 14
38 39 0 26 -4 30 -27 29 -16 0 -46 -7 -67 -15z"/>
<path d="M2105 1690 c-3 -5 -1 -10 4 -10 6 0 11 5 11 10 0 6 -2 10 -4 10 -3 0
-8 -4 -11 -10z"/>
<path d="M151 1666 c-6 -16 -24 -56 -40 -90 -47 -101 -59 -142 -91 -301 -11
-55 -20 -118 -19 -140 l0 -40 14 50 c8 28 14 67 15 87 0 20 5 49 11 65 6 15
16 55 24 88 17 75 48 164 81 234 14 29 23 58 21 65 -3 6 -10 -2 -16 -18z"/>
<path d="M438 1673 c7 -3 16 -2 19 1 4 3 -2 6 -13 5 -11 0 -14 -3 -6 -6z"/>
<path d="M2081 1654 c0 -11 3 -14 6 -6 3 7 2 16 -1 19 -3 4 -6 -2 -5 -13z"/>
<path d="M559 1611 c6 -10 13 -43 17 -73 8 -66 14 -75 14 -19 0 40 -22 111
-35 111 -3 0 -1 -9 4 -19z"/>
<path d="M1955 1612 c-16 -9 -32 -20 -35 -23 -3 -3 -20 -11 -38 -17 -37 -13
-45 -20 -95 -84 -58 -77 -59 -189 -3 -216 28 -14 77 -21 70 -11 -2 4 4 7 15 6
29 -2 21 -39 -13 -55 -14 -7 -39 -13 -54 -12 -15 1 -39 1 -54 1 -16 0 -36 -1
-45 -1 -10 0 -65 1 -123 3 -58 2 -112 0 -121 -5 -19 -9 -31 -83 -17 -110 7
-14 22 -17 73 -17 l64 1 4 31 4 32 1 -32 c2 -28 6 -33 26 -33 22 0 25 5 29 43
l4 42 1 -42 2 -42 103 1 102 0 -3 39 c-3 24 0 39 7 39 6 0 11 -13 11 -28 0
-36 16 -52 52 -52 23 0 28 4 28 25 0 14 -4 25 -10 25 -5 0 -10 7 -10 15 0 14
22 20 62 16 10 -1 20 11 28 34 16 49 8 63 -35 63 -28 0 -38 -5 -44 -21 -7 -17
-8 -18 -14 -4 -4 10 -14 17 -23 17 -16 0 -16 2 2 19 10 10 24 18 29 17 6 0 10
6 10 14 0 12 -11 14 -56 12 -69 -4 -89 11 -89 69 0 57 22 102 81 164 35 37 62
57 85 61 39 7 69 34 38 34 -11 0 -32 -8 -49 -18z m14 -412 c-6 -16 -13 -30
-15 -30 -2 0 -4 14 -4 30 0 20 5 30 14 30 12 0 13 -6 5 -30z m41 13 c0 -20
-17 -50 -24 -43 -2 3 -2 17 1 33 6 30 23 37 23 10z m-100 -7 c0 -8 6 -17 13
-20 10 -5 10 -7 0 -12 -7 -3 -13 -18 -13 -34 0 -16 6 -30 13 -33 6 -2 9 -8 5
-12 -16 -17 -38 5 -38 40 0 30 -3 35 -24 35 -25 0 -36 -16 -36 -56 0 -13 -4
-24 -10 -24 -5 0 -10 22 -10 49 0 48 1 50 28 49 45 -1 52 1 52 17 0 8 5 15 10
15 6 0 10 -6 10 -14z m-390 -30 c0 -9 -7 -12 -20 -9 -27 7 -25 -10 3 -22 33
-15 29 -49 -7 -53 -16 -2 -33 1 -39 7 -16 16 0 26 18 11 12 -10 19 -10 27 -2
8 8 5 14 -14 21 -34 13 -43 28 -28 46 16 19 60 20 60 1z m162 0 c11 -16 10
-86 -1 -86 -6 0 -11 17 -13 37 -2 27 -8 39 -20 41 -15 3 -18 -4 -18 -37 0 -30
-4 -41 -15 -41 -11 0 -15 11 -15 40 0 29 -4 40 -15 40 -11 0 -15 -11 -15 -40
0 -29 -4 -40 -15 -40 -11 0 -15 12 -15 48 l0 49 68 0 c40 1 70 -4 74 -11z m96
2 c5 -7 12 -30 14 -50 l4 -38 -42 0 c-28 0 -44 5 -48 15 -7 19 19 45 45 45 12
0 17 4 13 11 -3 6 -17 8 -30 5 -23 -6 -32 3 -17 17 11 12 50 8 61 -5z"/>
<path d="M1730 1115 c0 -8 4 -15 9 -15 5 0 14 7 21 15 10 13 9 15 -9 15 -12 0
-21 -6 -21 -15z"/>
<path d="M720 1594 c0 -8 5 -12 10 -9 6 4 8 11 5 16 -9 14 -15 11 -15 -7z"/>
<path d="M411 1566 c-12 -14 -5 -26 16 -26 15 0 18 26 4 34 -5 3 -14 0 -20 -8z"/>
<path d="M750 1566 c0 -21 16 -28 29 -12 9 11 8 15 -5 20 -22 8 -24 8 -24 -8z"/>
<path d="M820 1566 c0 -8 5 -18 10 -21 6 -3 10 3 10 14 0 12 -4 21 -10 21 -5
0 -10 -6 -10 -14z"/>
<path d="M566 1445 c-3 -9 -6 -22 -5 -28 0 -7 5 -1 10 12 5 13 8 26 5 28 -2 2
-6 -3 -10 -12z"/>
<path d="M311 1430 c14 -31 19 -36 19 -24 0 6 -7 19 -16 30 -14 18 -14 18 -3
-6z"/>
<path d="M826 1403 c7 -40 11 -49 19 -42 8 8 -7 79 -17 79 -5 0 -6 -17 -2 -37z"/>
<path d="M1059 1390 c-4 -30 -10 -66 -14 -80 -6 -22 -5 -21 10 5 10 19 15 46
13 80 l-3 50 -6 -55z"/>
<path d="M666 1414 c-22 -22 -20 -33 9 -46 31 -14 36 -58 7 -58 -11 0 -33 -15
-49 -34 -27 -29 -36 -33 -71 -30 -45 4 -56 -5 -67 -53 -5 -24 -3 -33 7 -35 7
0 18 -2 23 -3 6 -2 20 -3 33 -4 19 -1 22 -7 22 -41 0 -35 3 -40 24 -40 20 0
24 6 30 40 4 25 14 43 26 50 19 10 20 8 20 -40 0 -43 3 -50 19 -50 11 0 23 5
26 10 5 8 11 7 21 -1 14 -11 86 -15 102 -5 5 3 9 21 10 41 1 20 5 41 8 47 4 7
3 8 -4 4 -7 -4 -12 -1 -12 9 0 9 -13 22 -30 28 -17 6 -33 19 -36 29 -3 10 -18
27 -35 38 -35 26 -37 47 -5 62 44 19 42 37 -8 76 -34 26 -49 27 -70 6z m68
-155 c14 -11 30 -28 35 -37 8 -15 2 -17 -39 -19 -43 -2 -47 0 -43 17 4 17 0
20 -26 20 -35 0 -39 7 -13 26 25 19 56 17 86 -7z m-199 -56 c-8 -31 -13 -39
-20 -31 -9 9 6 58 17 58 6 0 7 -11 3 -27z m39 0 c-8 -33 -12 -39 -20 -30 -9 9
5 57 16 57 6 0 8 -11 4 -27z m46 -43 c0 -40 -4 -70 -10 -70 -6 0 -10 30 -10
70 0 40 4 70 10 70 6 0 10 -30 10 -70z m45 43 c-8 -31 -13 -39 -20 -31 -9 9 6
58 17 58 6 0 7 -11 3 -27z m163 -25 c18 -15 16 -88 -3 -88 -11 0 -15 11 -15
40 0 29 -4 40 -15 40 -11 0 -15 -11 -15 -40 0 -29 -4 -40 -15 -40 -11 0 -15
11 -15 40 0 29 -4 40 -15 40 -16 0 -18 -8 -15 -52 1 -20 -3 -28 -14 -28 -12 0
-16 11 -16 49 l0 48 63 0 c34 0 68 -4 75 -9z m-91 -50 c-3 -8 -6 -5 -6 6 -1
11 2 17 5 13 3 -3 4 -12 1 -19z"/>
<path d="M340 1381 c0 -5 7 -12 16 -15 14 -5 15 -4 4 9 -14 17 -20 19 -20 6z"/>
<path d="M1015 1272 c-5 -4 -10 -14 -10 -22 0 -8 -6 -14 -12 -12 -7 1 -12 -1
-12 -5 4 -23 -5 -28 -42 -28 -24 0 -44 -6 -49 -15 -12 -19 -10 -92 2 -107 12
-15 74 -17 83 -3 4 7 13 6 25 -3 10 -7 36 -11 59 -9 38 4 41 6 42 36 l1 31 10
-28 c12 -33 49 -45 92 -28 20 7 32 8 34 1 5 -15 68 -12 82 5 11 13 14 13 27 0
8 -8 25 -15 39 -15 19 0 24 5 24 24 0 13 -6 26 -12 29 -10 3 -10 9 0 26 14 24
16 51 3 51 -5 0 -11 9 -14 20 -7 26 -21 25 -45 -1 -14 -15 -26 -18 -46 -13
-16 4 -35 1 -49 -9 -19 -12 -26 -13 -41 -1 -13 9 -40 12 -90 9 -71 -5 -71 -5
-84 25 -8 16 -11 34 -7 40 7 12 4 13 -10 2z m24 -89 c14 -11 14 -12 -1 -13
-13 0 -18 -8 -18 -26 0 -15 8 -33 18 -41 16 -12 15 -13 -8 -11 -21 3 -26 9
-28 38 -2 19 -8 38 -14 41 -6 4 -3 15 8 28 13 15 20 18 23 9 2 -7 11 -18 20
-25z m347 7 c8 0 14 -4 14 -10 0 -5 -7 -10 -15 -10 -21 0 -19 -39 2 -63 17
-18 17 -19 -7 -16 -20 3 -26 10 -28 39 -2 19 -8 38 -14 41 -6 4 -3 15 8 28 15
18 20 19 22 6 2 -8 10 -15 18 -15z m-418 -18 c3 -9 -4 -11 -25 -7 -24 6 -26 5
-11 -7 9 -7 24 -17 33 -23 20 -12 11 -41 -15 -48 -23 -6 -59 18 -46 30 5 4 11
2 13 -4 6 -17 33 -16 33 1 0 7 -9 16 -20 19 -26 7 -37 36 -19 48 19 12 51 7
57 -9z m148 7 c3 -5 -2 -9 -10 -9 -18 0 -30 -33 -21 -60 5 -14 2 -20 -9 -20
-12 0 -16 11 -16 49 0 45 2 49 25 49 14 0 28 -4 31 -9z m94 -8 c17 -32 12 -41
-25 -41 -19 0 -35 -4 -35 -9 0 -15 23 -19 44 -9 14 8 17 7 14 -4 -3 -7 -19
-13 -39 -13 -27 0 -35 5 -43 27 -8 22 -6 32 9 48 23 25 61 26 75 1z m98 7 c7
-7 12 -20 12 -30 0 -14 -8 -18 -37 -18 -35 0 -36 -1 -21 -17 14 -14 20 -14 33
-3 17 14 31 8 20 -9 -9 -15 -58 -14 -73 1 -7 7 -12 22 -12 34 0 43 50 70 78
42z"/>
<path d="M1150 1160 c0 -5 9 -10 20 -10 11 0 20 5 20 10 0 6 -9 10 -20 10 -11
0 -20 -4 -20 -10z"/>
<path d="M1255 1160 c-4 -6 5 -10 19 -10 14 0 26 5 26 10 0 6 -9 10 -19 10
-11 0 -23 -4 -26 -10z"/>
<path d="M870 1262 c0 -15 27 -45 36 -41 5 2 -1 14 -13 26 -13 12 -23 19 -23
15z"/>
<path d="M750 1004 c0 -8 5 -12 10 -9 6 3 10 10 10 16 0 5 -4 9 -10 9 -5 0
-10 -7 -10 -16z"/>
<path d="M519 777 c-46 -17 -76 -48 -99 -102 -63 -146 -35 -330 67 -445 31
-35 56 -51 106 -69 65 -22 106 -25 110 -6 1 5 -10 10 -24 12 -36 2 -151 58
-177 85 -11 13 -30 44 -42 70 -11 26 -25 50 -30 53 -6 3 -10 21 -10 40 0 19
-5 37 -10 40 -11 7 -8 70 3 81 8 8 67 -34 67 -48 0 -13 39 -46 68 -58 13 -6
26 -19 29 -30 3 -12 14 -20 27 -20 12 0 28 -6 36 -12 8 -7 2 3 -12 22 -14 19
-35 55 -48 80 -12 25 -34 57 -49 72 -14 14 -30 32 -36 38 -5 6 -22 21 -37 33
-26 21 -27 23 -13 62 16 45 57 82 95 87 14 2 52 -2 84 -9 70 -16 84 -10 31 13
-55 23 -95 26 -136 11z"/>
<path d="M740 694 c55 -35 99 -42 108 -16 2 8 -7 12 -28 12 -17 0 -48 9 -70
20 -63 32 -70 22 -10 -16z"/>
<path d="M1450 619 c-41 -27 -91 -54 -110 -60 -19 -6 -44 -14 -55 -19 -11 -4
-51 -21 -90 -36 -38 -16 -72 -31 -75 -34 -3 -3 -27 -16 -55 -30 -27 -14 -57
-32 -66 -42 -10 -9 -25 -15 -36 -15 -13 2 -17 -4 -16 -18 5 -36 4 -60 -3 -94
-5 -26 -4 -33 7 -29 8 3 16 20 19 39 3 21 11 35 21 37 25 5 35 -62 15 -93 -18
-28 -20 -45 -6 -45 6 0 23 -11 38 -25 15 -14 31 -25 35 -25 5 0 22 -10 38 -22
15 -13 48 -39 73 -58 38 -29 43 -36 28 -42 -9 -3 218 -7 506 -7 l522 -1 0 269
c0 191 -3 272 -11 277 -7 4 -113 9 -238 12 -124 2 -227 8 -229 13 -2 5 -21 9
-43 9 -21 0 -39 5 -39 10 0 6 -18 10 -40 10 -34 0 -40 -3 -40 -21 0 -20 -2
-19 -34 9 -24 21 -42 29 -58 25 -22 -4 -22 -4 -4 11 10 8 24 17 30 19 7 3 8 8
1 15 -7 7 -34 -5 -85 -39z m70 -49 c0 -5 -5 -10 -11 -10 -5 0 -7 5 -4 10 3 6
8 10 11 10 2 0 4 -4 4 -10z"/>
<path d="M233 3 c15 -2 37 -2 50 0 12 2 0 4 -28 4 -27 0 -38 -2 -22 -4z"/>
<path d="M347 3 c18 -2 50 -2 70 0 21 2 7 4 -32 4 -38 0 -55 -2 -38 -4z"/>
<path d="M1018 3 c12 -2 32 -2 45 0 12 2 2 4 -23 4 -25 0 -35 -2 -22 -4z"/>
</g>
</svg>
